<svg width="211" height="148"  fill="none" xmlns="http://www.w3.org/2000/svg">
                  <rect opacity="0.3" x="0.5" y="0.5" width="210" height="147" rx="3.5" stroke="#475569" />
                  <path d="M27 14C27 12.8954 27.8954 12 29 12H197C198.105 12 199 12.8954 199 14V32H27V14Z"
                    fill="#E3E5E9" />
                  <path d="M27 37H199V119H27V37Z" fill="#E3E5E9" />
                  <path d="M27 124H199V132C199 134.209 197.209 136 195 136H27V124Z" fill="#E3E5E9" />
                  <path d="M12 16C12 13.7909 13.7909 12 16 12H22V136H16C13.7909 136 12 134.209 12 132V16Z"
                    fill="#E3E5E9" />
                  <rect x="14" y="20" width="6" height="6" rx="3" fill="#F1F5F9" />
                  <rect x="15" y="44" width="4" height="4" rx="2" fill="#F1F5F9" />
                  <rect x="15" y="52" width="4" height="4" rx="2" fill="#F1F5F9" />
                  <rect x="15" y="60" width="4" height="4" rx="2" fill="#F1F5F9" />
                  <rect x="15" y="68" width="4" height="4" rx="2" fill="#F1F5F9" />
                </svg>