 <svg width="211" height="148"  fill="none" xmlns="http://www.w3.org/2000/svg">
                  <rect opacity="0.3" x="0.5" y="0.5" width="210" height="147" rx="3.5" stroke="#475569" />
                  <path d="M42 12H195C197.209 12 199 13.7909 199 16V28H42V12Z" fill="#E3E5E9" />
                  <path d="M12 16C12 13.7909 13.7909 12 16 12H42V136H16C13.7909 136 12 134.209 12 132V16Z"
                    fill="#E3E5E9" />
                  <rect x="16" y="20" width="22" height="8" rx="4" fill="#F1F5F9" />
                  <rect x="16" y="52" width="22" height="4" rx="2" fill="#F1F5F9" />
                  <rect x="16" y="60" width="22" height="4" rx="2" fill="#F1F5F9" />
                  <rect x="16" y="68" width="22" height="4" rx="2" fill="#F1F5F9" />
                  <path d="M47 34H199V119H47V34Z" fill="#E3E5E9" />
                  <path d="M44 124H199V132C199 134.209 197.209 136 195 136H44V124Z" fill="#E3E5E9" />
                </svg>