<svg width="211" height="148"  fill="none" xmlns="http://www.w3.org/2000/svg">
                  <rect opacity="0.3" x="0.5" y="0.5" width="210" height="147" rx="3.5" stroke="#475569" />
                  <rect x="50" y="12" width="149" height="16" rx="4" fill="#E3E5E9" />
                  <rect x="143" y="16" width="24" height="8" rx="4" fill="#F1F5F9" />
                  <rect x="54" y="16" width="8" height="8" rx="4" fill="#F1F5F9" />
                  <rect x="171" y="16" width="24" height="8" rx="4" fill="#F1F5F9" />
                  <path
                    d="M12 16C12 13.7909 13.7909 12 16 12H38C40.2091 12 42 13.7909 42 16V132C42 134.209 40.2091 136 38 136H16C13.7909 136 12 134.209 12 132V16Z"
                    fill="#E3E5E9" />
                  <rect x="16" y="20" width="22" height="8" rx="4" fill="#F1F5F9" />
                  <rect x="16" y="52" width="22" height="4" rx="2" fill="#F1F5F9" />
                  <rect x="16" y="60" width="22" height="4" rx="2" fill="#F1F5F9" />
                  <rect x="16" y="68" width="22" height="4" rx="2" fill="#F1F5F9" />
                  <rect x="50" y="34" width="149" height="85" rx="2" fill="#E3E5E9" />
                  <path
                    d="M50 128C50 125.791 51.7909 124 54 124H195C197.209 124 199 125.791 199 128V132C199 134.209 197.209 136 195 136H54C51.7909 136 50 134.209 50 132V128Z"
                    fill="#E3E5E9" />
                </svg>