<svg width="66" height="28" viewBox="0 0 66 28" fill="none" xmlns="http://www.w3.org/2000/svg">
<path d="M0.326705 27V23.5739L9.41619 14.6634C10.2855 13.7855 11.0099 13.0057 11.5895 12.3239C12.169 11.642 12.6037 10.9815 12.8935 10.3423C13.1832 9.70312 13.3281 9.02131 13.3281 8.29688C13.3281 7.47017 13.1406 6.76278 12.7656 6.17472C12.3906 5.57812 11.875 5.1179 11.2188 4.79403C10.5625 4.47017 9.81676 4.30824 8.98153 4.30824C8.12074 4.30824 7.36648 4.48721 6.71875 4.84517C6.07102 5.1946 5.56818 5.69318 5.21023 6.34091C4.8608 6.98864 4.68608 7.75994 4.68608 8.65483H0.173296C0.173296 6.9929 0.552557 5.54829 1.31108 4.32102C2.0696 3.09375 3.11364 2.14346 4.44318 1.47017C5.78125 0.796874 7.31534 0.460226 9.04545 0.460226C10.8011 0.460226 12.3438 0.788351 13.6733 1.4446C15.0028 2.10085 16.0341 3 16.767 4.14205C17.5085 5.28409 17.8793 6.58807 17.8793 8.05398C17.8793 9.03409 17.6918 9.99716 17.3168 10.9432C16.9418 11.8892 16.2813 12.9375 15.3352 14.0881C14.3977 15.2386 13.081 16.6321 11.3849 18.2685L6.87216 22.858V23.0369H18.2756V27H0.326705ZM32.3636 27.4986C30.2585 27.4986 28.4517 26.9659 26.9432 25.9006C25.4432 24.8267 24.2884 23.2798 23.4787 21.2599C22.6776 19.2315 22.277 16.7898 22.277 13.9347C22.2855 11.0795 22.6903 8.65057 23.4915 6.64773C24.3011 4.63636 25.456 3.10227 26.956 2.04545C28.4645 0.988636 30.267 0.460226 32.3636 0.460226C34.4602 0.460226 36.2628 0.988636 37.7713 2.04545C39.2798 3.10227 40.4347 4.63636 41.2358 6.64773C42.0455 8.65909 42.4503 11.0881 42.4503 13.9347C42.4503 16.7983 42.0455 19.2443 41.2358 21.2727C40.4347 23.2926 39.2798 24.8352 37.7713 25.9006C36.2713 26.9659 34.4688 27.4986 32.3636 27.4986ZM32.3636 23.4972C34 23.4972 35.2912 22.6918 36.2372 21.081C37.1918 19.4616 37.669 17.0795 37.669 13.9347C37.669 11.8551 37.4517 10.108 37.017 8.69318C36.5824 7.27841 35.9688 6.21307 35.1761 5.49716C34.3835 4.77273 33.446 4.41051 32.3636 4.41051C30.7358 4.41051 29.4489 5.22017 28.5028 6.83949C27.5568 8.45028 27.0795 10.8153 27.071 13.9347C27.0625 16.0227 27.2713 17.7784 27.6974 19.2017C28.1321 20.625 28.7457 21.6989 29.5384 22.4233C30.331 23.1392 31.2727 23.4972 32.3636 23.4972ZM54.4705 22.8068V5.11364H58.4847V22.8068H54.4705ZM47.631 15.9673V11.9531H65.3242V15.9673H47.631Z" fill="white"/>
</svg>
