<svg width="32" height="32" viewBox="0 0 32 32" fill="none" xmlns="http://www.w3.org/2000/svg">
<path d="M7.52941 0V16.9412H32V0H7.52941ZM30.1176 15.0588H9.41177V1.88235H30.1176V15.0588ZM0 5.64706H5.64706V0H0V5.64706ZM1.88235 1.88235H3.76471V3.76471H1.88235V1.88235ZM7.52941 24.4706H32V18.8235H7.52941V24.4706ZM9.41177 20.7059H30.1176V22.5882H9.41177V20.7059ZM0 24.4706H5.64706V18.8235H0V24.4706ZM1.88235 20.7059H3.76471V22.5882H1.88235V20.7059ZM7.52941 32H32V26.3529H7.52941V32ZM9.41177 28.2353H30.1176V30.1176H9.41177V28.2353ZM0 32H5.64706V26.3529H0V32ZM1.88235 28.2353H3.76471V30.1176H1.88235V28.2353Z" fill="white"/>
</svg>
