<svg width="28" height="36" viewBox="0 0 28 36" fill="none" xmlns="http://www.w3.org/2000/svg">
<path d="M20.2497 8C20.2497 9.6576 19.5912 11.2473 18.4191 12.4194C17.247 13.5915 15.6573 14.25 13.9997 14.25C12.3421 14.25 10.7524 13.5915 9.58026 12.4194C8.40816 11.2473 7.74968 9.6576 7.74968 8C7.74968 6.3424 8.40816 4.75268 9.58026 3.58058C10.7524 2.40848 12.3421 1.75 13.9997 1.75C15.6573 1.75 17.247 2.40848 18.4191 3.58058C19.5912 4.75268 20.2497 6.3424 20.2497 8V8ZM1.50134 31.53C1.5549 28.2506 2.89524 25.1236 5.2333 22.8234C7.57137 20.5232 10.7198 19.2341 13.9997 19.2341C17.2795 19.2341 20.428 20.5232 22.766 22.8234C25.1041 25.1236 26.4445 28.2506 26.498 31.53C22.577 33.3279 18.3133 34.2559 13.9997 34.25C9.53968 34.25 5.30634 33.2767 1.50134 31.53Z" stroke="white" stroke-width="2.5" stroke-linecap="round" stroke-linejoin="round"/>
</svg>
