<svg width="40" height="40" viewBox="0 0 40 40" fill="none" xmlns="http://www.w3.org/2000/svg">
<path d="M6.47098 31.5578L6.47098 31.5578H6.46149C6.45442 31.5578 6.44824 31.5575 6.44292 31.5571C6.44252 31.5518 6.44226 31.5456 6.44226 31.5386V8.38471C6.44226 8.37764 6.44252 8.37146 6.44292 8.36614C6.44824 8.36574 6.45442 8.36548 6.46149 8.36548H12.6923C12.7947 8.36548 12.9671 8.43053 13.0626 8.51011L21.9512 19.6974L21.9528 19.6994C22.0216 19.7854 22.0685 20.0247 21.9288 20.2538L12.9532 31.4542L12.9456 31.4635L12.9384 31.4732C12.8788 31.5527 12.7419 31.6336 12.5424 31.6347L6.47098 31.5578Z" stroke="white" stroke-width="1.5"/>
<path d="M23.9391 8.50118L23.9392 8.50128L23.9496 8.4924C24.0558 8.40133 24.1497 8.38674 24.2277 8.39715C24.3174 8.4091 24.4187 8.46035 24.4977 8.55342L33.4912 19.6992C33.4914 19.6995 33.4917 19.6998 33.4919 19.7001C33.5427 19.7642 33.6331 19.9424 33.4382 20.3668L24.5212 31.4939C24.4044 31.602 24.2992 31.64 24.2208 31.6481C24.1445 31.656 24.0421 31.6413 23.9156 31.556L22.1724 30.116C22.1721 30.1158 22.1718 30.1155 22.1715 30.1153C22.0226 29.9901 22.0006 29.6937 22.1146 29.5569L22.1147 29.557L22.1226 29.5471L29.4303 20.4702L29.8106 19.9979L29.4283 19.5271L22.1206 10.5271L22.0962 10.497L22.0687 10.4696C21.95 10.3508 21.9492 10.1226 22.1282 9.9948L22.1496 9.97949L22.1699 9.96272L23.9391 8.50118Z" stroke="white" stroke-width="1.5"/>
</svg>
