<svg width="36" height="36" viewBox="0 0 36 36" fill="none" xmlns="http://www.w3.org/2000/svg">
<path d="M19.9834 12.48C21.0664 12.9971 22.0096 13.7666 22.7336 14.7238C23.4576 15.681 23.9413 16.7979 24.1441 17.9808C24.3469 19.1637 24.2629 20.378 23.8991 21.5217C23.5353 22.6654 22.9023 23.705 22.0534 24.5534L14.5534 32.0534C13.1468 33.4599 11.2392 34.2501 9.25005 34.2501C7.26091 34.2501 5.35324 33.4599 3.94671 32.0534C2.54018 30.6468 1.75 28.7392 1.75 26.75C1.75 24.7609 2.54018 22.8532 3.94671 21.4467L6.87505 18.5184M29.125 17.4817L32.0534 14.5534C33.4599 13.1468 34.2501 11.2392 34.2501 9.25005C34.2501 7.26091 33.4599 5.35324 32.0534 3.94671C30.6468 2.54018 28.7392 1.75 26.75 1.75C24.7609 1.75 22.8532 2.54018 21.4467 3.94671L13.9467 11.4467C13.0978 12.2951 12.4648 13.3347 12.101 14.4784C11.7372 15.6221 11.6532 16.8364 11.856 18.0193C12.0588 19.2022 12.5425 20.3191 13.2665 21.2763C13.9905 22.2335 14.9337 23.003 16.0167 23.52" stroke="white" stroke-width="2.5" stroke-linecap="round" stroke-linejoin="round"/>
</svg>
