<svg width="34" height="34" viewBox="0 0 34 34" fill="none" xmlns="http://www.w3.org/2000/svg">
<path d="M8.24998 1.98999V5.73999M25.75 1.98999V5.73999M1.99664 28.24V9.48499C1.99664 8.49043 2.39173 7.5366 3.09499 6.83334C3.79825 6.13008 4.75208 5.73499 5.74664 5.73499H28.2466C29.2412 5.73499 30.195 6.13008 30.8983 6.83334C31.6016 7.5366 31.9966 8.49043 31.9966 9.48499V28.2367M31.9966 28.2367C31.9966 29.2312 31.6016 30.185 30.8983 30.8883C30.195 31.5916 29.2412 31.9867 28.2466 31.9867H5.74664C4.75208 31.9867 3.79825 31.5916 3.09499 30.8883C2.39173 30.185 1.99664 29.2312 1.99664 28.2367V15.7367C1.99664 14.7421 2.39173 13.7883 3.09499 13.085C3.79825 12.3817 4.75208 11.9867 5.74664 11.9867H28.2466C29.2412 11.9867 30.195 12.3817 30.8983 13.085C31.6016 13.7883 31.9966 14.7421 31.9966 15.7367V28.2367ZM20.7466 18.2367H24.4966M9.49664 21.9867H16.9966M17 18.2367H17.0083V18.2467H17V18.2367ZM16.9983 25.7367H17.0083V25.7467H16.9983V25.7367ZM13.2483 25.7383H13.2566V25.7483H13.25V25.7383H13.2483ZM9.49831 25.7383H9.50664V25.7467H9.49664V25.7383H9.49831ZM20.7483 21.9933H20.7566V22.0017H20.7483V21.9933ZM20.7483 25.7383H20.7583V25.7483H20.7483V25.7383ZM24.4983 21.9917H24.5083V22H24.5L24.4983 21.9917Z" stroke="white" stroke-width="2.5" stroke-linecap="round" stroke-linejoin="round"/>
</svg>
