<svg width="36" height="28" viewBox="0 0 36 28" fill="none" xmlns="http://www.w3.org/2000/svg">
<path d="M1.75 7.75H34.25M1.75 9H34.25M6.75 17.75H16.75M6.75 21.5H11.75M5.5 26.5H30.5C31.4946 26.5 32.4484 26.1049 33.1516 25.4016C33.8549 24.6984 34.25 23.7446 34.25 22.75V5.25C34.25 4.25544 33.8549 3.30161 33.1516 2.59835C32.4484 1.89509 31.4946 1.5 30.5 1.5H5.5C4.50544 1.5 3.55161 1.89509 2.84835 2.59835C2.14509 3.30161 1.75 4.25544 1.75 5.25V22.75C1.75 23.7446 2.14509 24.6984 2.84835 25.4016C3.55161 26.1049 4.50544 26.5 5.5 26.5Z" stroke="white" stroke-width="2.5" stroke-linecap="round" stroke-linejoin="round"/>
</svg>
