<svg width="30" height="30" viewBox="0 0 30 30" fill="none" xmlns="http://www.w3.org/2000/svg">
<path d="M7.5 18.75V22.5M12.5 15V22.5M17.5 11.25V22.5M22.5 7.5V22.5M5 28.75H25C25.9946 28.75 26.9484 28.3549 27.6516 27.6516C28.3549 26.9484 28.75 25.9946 28.75 25V5C28.75 4.00544 28.3549 3.05161 27.6516 2.34835C26.9484 1.64509 25.9946 1.25 25 1.25H5C4.00544 1.25 3.05161 1.64509 2.34835 2.34835C1.64509 3.05161 1.25 4.00544 1.25 5V25C1.25 25.9946 1.64509 26.9484 2.34835 27.6516C3.05161 28.3549 4.00544 28.75 5 28.75Z" stroke="white" stroke-width="2.5" stroke-linecap="round" stroke-linejoin="round"/>
</svg>
