<svg width="30" height="30" viewBox="0 0 30 30" fill="none" xmlns="http://www.w3.org/2000/svg">
<path d="M8.33329 15.0001L13.3333 20.0001L21.6666 10.0001M1.66663 23.0004V7.00041C1.66663 5.13356 1.66663 4.19945 2.02994 3.48642C2.34951 2.8592 2.85908 2.34963 3.48629 2.03006C4.19933 1.66675 5.13344 1.66675 7.00029 1.66675H23.0003C24.8671 1.66675 25.7993 1.66675 26.5123 2.03006C27.1395 2.34963 27.6508 2.8592 27.9703 3.48642C28.3333 4.19875 28.3333 5.13173 28.3333 6.99493V23.0061C28.3333 24.8692 28.3333 25.8009 27.9703 26.5132C27.6508 27.1404 27.1395 27.6509 26.5123 27.9704C25.8 28.3334 24.8683 28.3334 23.0051 28.3334H6.99481C5.13161 28.3334 4.19863 28.3334 3.48629 27.9704C2.85908 27.6509 2.34951 27.1404 2.02994 26.5132C1.66663 25.8002 1.66663 24.8672 1.66663 23.0004Z" stroke="white" stroke-width="2.5" stroke-linecap="round" stroke-linejoin="round"/>
</svg>
