<svg width="35" height="35" viewBox="0 0 35 35" fill="none" xmlns="http://www.w3.org/2000/svg">
<path d="M25.1033 5.47801L29.5 9.87468M27 21.333V29.2497C27 30.2442 26.6049 31.1981 25.9017 31.9013C25.1984 32.6046 24.2446 32.9997 23.25 32.9997H5.75C4.75544 32.9997 3.80161 32.6046 3.09835 31.9013C2.39509 31.1981 2 30.2442 2 29.2497V11.7497C2 10.7551 2.39509 9.80129 3.09835 9.09803C3.80161 8.39477 4.75544 7.99968 5.75 7.99968H13.6667M25.1033 5.47801L27.915 2.66468C28.5011 2.07855 29.2961 1.74927 30.125 1.74927C30.9539 1.74927 31.7489 2.07855 32.335 2.66468C32.9211 3.25081 33.2504 4.04577 33.2504 4.87468C33.2504 5.70359 32.9211 6.49855 32.335 7.08468L14.6367 24.783C13.7555 25.6636 12.6689 26.3109 11.475 26.6663L7 27.9997L8.33333 23.5247C8.6888 22.3307 9.33606 21.2441 10.2167 20.363L25.1033 5.47801V5.47801Z" stroke="white" stroke-width="2.5" stroke-linecap="round" stroke-linejoin="round"/>
</svg>
