<svg width="36" height="22" viewBox="0 0 36 22" fill="none" xmlns="http://www.w3.org/2000/svg">
<path fill-rule="evenodd" clip-rule="evenodd" d="M18 0.439941C17.4698 0.439941 17.04 0.869733 17.04 1.39994C17.04 1.93012 17.4698 2.35994 18 2.35994H34.8C35.3302 2.35994 35.76 1.93012 35.76 1.39994C35.76 0.869733 35.3302 0.439941 34.8 0.439941H18ZM18 5.23999C17.4698 5.23999 17.04 5.66978 17.04 6.19999C17.04 6.73017 17.4698 7.15999 18 7.15999H34.8C35.3302 7.15999 35.76 6.73017 35.76 6.19999C35.76 5.66978 35.3302 5.23999 34.8 5.23999H18ZM17.04 11C17.04 10.4698 17.4698 10.04 18 10.04H34.8C35.3302 10.04 35.76 10.4698 35.76 11C35.76 11.5302 35.3302 11.96 34.8 11.96H18C17.4698 11.96 17.04 11.5302 17.04 11ZM18 14.84C17.4698 14.84 17.04 15.2698 17.04 15.8C17.04 16.3302 17.4698 16.76 18 16.76H34.8C35.3302 16.76 35.76 16.3302 35.76 15.8C35.76 15.2698 35.3302 14.84 34.8 14.84H18ZM17.04 20.6C17.04 20.0698 17.4698 19.64 18 19.64H34.8C35.3302 19.64 35.76 20.0698 35.76 20.6C35.76 21.1301 35.3302 21.56 34.8 21.56H18C17.4698 21.56 17.04 21.1301 17.04 20.6ZM6 15.2001L12 7.40006H0L6 15.2001Z" fill="white"/>
</svg>
