<svg width="28" height="36" viewBox="0 0 28 36" fill="none" xmlns="http://www.w3.org/2000/svg">
<path d="M26.5 21.75V17.375C26.5 15.8832 25.9074 14.4524 24.8525 13.3975C23.7976 12.3426 22.3668 11.75 20.875 11.75H18.375C17.8777 11.75 17.4008 11.5525 17.0492 11.2008C16.6975 10.8492 16.5 10.3723 16.5 9.875V7.375C16.5 5.88316 15.9074 4.45242 14.8525 3.39752C13.7976 2.34263 12.3668 1.75 10.875 1.75H7.75M9 25.5V26.75M14 21.75V26.75M19 18V26.75M11.5 1.75H3.375C2.34 1.75 1.5 2.59 1.5 3.625V32.375C1.5 33.41 2.34 34.25 3.375 34.25H24.625C25.66 34.25 26.5 33.41 26.5 32.375V16.75C26.5 12.7718 24.9196 8.95644 22.1066 6.1434C19.2936 3.33035 15.4782 1.75 11.5 1.75Z" stroke="white" stroke-width="2.5" stroke-linecap="round" stroke-linejoin="round"/>
</svg>
