<svg width="40" height="40" viewBox="0 0 40 40" fill="none" xmlns="http://www.w3.org/2000/svg">
<path d="M3.33325 14.9999V8.33325C3.33325 7.44919 3.68444 6.60135 4.30956 5.97623C4.93468 5.35111 5.78253 4.99992 6.66659 4.99992H13.1666C13.7241 4.99445 14.274 5.1289 14.7661 5.39095C15.2582 5.653 15.6767 6.03429 15.9833 6.49992L17.3333 8.49992C17.6368 8.9608 18.05 9.33912 18.5358 9.60092C19.0215 9.86273 19.5647 9.99983 20.1166 9.99992H33.3333C34.2173 9.99992 35.0652 10.3511 35.6903 10.9762C36.3154 11.6013 36.6666 12.4492 36.6666 13.3332V29.9999C36.6666 30.884 36.3154 31.7318 35.6903 32.3569C35.0652 32.9821 34.2173 33.3332 33.3333 33.3332H6.66659C5.78253 33.3332 4.93468 32.9821 4.30956 32.3569C3.68444 31.7318 3.33325 30.884 3.33325 29.9999V28.3332" stroke="white" stroke-width="2.5" stroke-linecap="round" stroke-linejoin="round"/>
<path d="M3.33325 21.6667H19.9999" stroke="white" stroke-width="2.5" stroke-linecap="round" stroke-linejoin="round"/>
<path d="M15 26.6667L20 21.6667L15 16.6667" stroke="white" stroke-width="2.5" stroke-linecap="round" stroke-linejoin="round"/>
</svg>
