<svg width="30" height="27" viewBox="0 0 30 27" fill="none" xmlns="http://www.w3.org/2000/svg">
<path d="M29.2463 1.98535V18.819C29.2452 19.0839 29.1395 19.3376 28.9522 19.5249C28.7649 19.7122 28.5112 19.8179 28.2463 19.819H23.2863V25.0232C23.2857 25.2883 23.1802 25.5423 22.9928 25.7297C22.8054 25.9172 22.5513 26.0227 22.2863 26.0232H1.75366C1.48862 26.0227 1.23459 25.9172 1.04717 25.7297C0.859754 25.5423 0.754218 25.2883 0.753662 25.0232V8.18956C0.754218 7.92452 0.859754 7.67049 1.04717 7.48307C1.23459 7.29565 1.48862 7.19012 1.75366 7.18956H6.71366V1.98535C6.71422 1.72031 6.81975 1.46627 7.00717 1.27886C7.19459 1.09144 7.44862 0.985908 7.71366 0.985352H28.2463C28.5113 0.985908 28.7654 1.09144 28.9528 1.27886C29.1402 1.46627 29.2457 1.72031 29.2463 1.98535ZM20.9516 19.819H7.71577C7.45089 19.8179 7.19718 19.7122 7.00989 19.5249C6.82259 19.3376 6.71688 19.0839 6.71577 18.819V12.1601H3.08419V23.6885H20.9516V19.819ZM26.9137 5.95588H9.04629V17.4843H26.9137V5.95588Z" fill="white"/>
</svg>
