<svg width="40" height="40" viewBox="0 0 40 40" fill="none" xmlns="http://www.w3.org/2000/svg">
<g clip-path="url(#clip0_1708_519)">
<path d="M35 26.25H5C4.33717 26.2493 3.70169 25.9857 3.233 25.517C2.76431 25.0483 2.50069 24.4128 2.5 23.75V16.25C2.50069 15.5872 2.76431 14.9517 3.233 14.483C3.70169 14.0143 4.33717 13.7507 5 13.75H35C35.6628 13.7507 36.2983 14.0143 36.767 14.483C37.2357 14.9517 37.4993 15.5872 37.5 16.25V23.75C37.4993 24.4128 37.2357 25.0483 36.767 25.517C36.2983 25.9857 35.6628 26.2493 35 26.25ZM5 16.25V23.75H35V16.25H5Z" fill="white"/>
<path d="M25 18.75H7.5V21.25H25V18.75Z" fill="white"/>
</g>
<defs>
<clipPath id="clip0_1708_519">
<rect width="40" height="40" fill="white"/>
</clipPath>
</defs>
</svg>
