<svg width="40" height="40" viewBox="0 0 40 40" fill="none" xmlns="http://www.w3.org/2000/svg">
<path d="M13.4 21.24C10.44 21.24 8.03998 23.64 8.03998 26.6C8.03998 29.56 10.44 31.96 13.4 31.96C16.36 31.96 18.76 29.56 18.76 26.6C18.76 23.64 16.36 21.24 13.4 21.24ZM13.4 29.6C11.76 29.6 10.4 28.24 10.4 26.6C10.4 24.96 11.76 23.6 13.4 23.6C15.04 23.6 16.4 24.96 16.4 26.6C16.4 28.28 15.04 29.6 13.4 29.6Z" fill="white"/>
<path d="M26.6 21.24C23.64 21.24 21.24 23.64 21.24 26.6C21.24 29.56 23.64 31.96 26.6 31.96C29.56 31.96 31.96 29.56 31.96 26.6C31.96 23.64 29.56 21.24 26.6 21.24Z" fill="white"/>
<path d="M13.4 8C10.44 8 8.03998 10.4 8.03998 13.36C8.03998 16.32 10.44 18.72 13.4 18.72C16.36 18.72 18.76 16.32 18.76 13.36C18.76 10.4 16.36 8 13.4 8ZM13.4 16.36C11.76 16.36 10.4 15 10.4 13.36C10.4 11.72 11.76 10.36 13.4 10.36C15.04 10.36 16.4 11.72 16.4 13.36C16.4 15 15.04 16.36 13.4 16.36Z" fill="white"/>
<path d="M26.6 8C23.64 8 21.24 10.4 21.24 13.36C21.24 16.32 23.64 18.72 26.6 18.72C29.56 18.72 31.96 16.32 31.96 13.36C31.96 10.4 29.56 8 26.6 8Z" fill="white"/>
</svg>
