<svg width="40" height="40" viewBox="0 0 40 40" fill="none" xmlns="http://www.w3.org/2000/svg">
<path d="M25 3.33325H10C9.11597 3.33325 8.26812 3.68444 7.643 4.30956C7.01788 4.93468 6.66669 5.78253 6.66669 6.66659V33.3333C6.66669 34.2173 7.01788 35.0652 7.643 35.6903C8.26812 36.3154 9.11597 36.6666 10 36.6666H30C30.8841 36.6666 31.7319 36.3154 32.357 35.6903C32.9822 35.0652 33.3334 34.2173 33.3334 33.3333V11.6666L25 3.33325Z" stroke="white" stroke-width="2.5" stroke-linecap="round" stroke-linejoin="round"/>
<path d="M23.3333 3.33325V9.99992C23.3333 10.884 23.6845 11.7318 24.3096 12.3569C24.9347 12.9821 25.7826 13.3333 26.6666 13.3333H33.3333" stroke="white" stroke-width="2.5" stroke-linecap="round" stroke-linejoin="round"/>
<path d="M13.3333 21.6667H16.6666" stroke="white" stroke-width="2.5" stroke-linecap="round" stroke-linejoin="round"/>
<path d="M23.3333 21.6667H26.6666" stroke="white" stroke-width="2.5" stroke-linecap="round" stroke-linejoin="round"/>
<path d="M13.3333 28.3333H16.6666" stroke="white" stroke-width="2.5" stroke-linecap="round" stroke-linejoin="round"/>
<path d="M23.3333 28.3333H26.6666" stroke="white" stroke-width="2.5" stroke-linecap="round" stroke-linejoin="round"/>
</svg>
