<svg width="36" height="36" viewBox="0 0 36 36" fill="none" xmlns="http://www.w3.org/2000/svg">
<path d="M26.3333 14.6666C27.4999 13.4999 29.1499 14.6666 30.4999 14.6666C31.605 14.6666 32.6648 14.2276 33.4462 13.4462C34.2276 12.6648 34.6666 11.605 34.6666 10.4999C34.6666 9.39485 34.2276 8.33504 33.4462 7.55364C32.6648 6.77224 31.605 6.33325 30.4999 6.33325C30.2789 6.33325 30.0669 6.24545 29.9107 6.08917C29.7544 5.93289 29.6666 5.72093 29.6666 5.49992C29.6666 4.39485 29.2276 3.33504 28.4462 2.55364C27.6648 1.77224 26.605 1.33325 25.4999 1.33325C24.3948 1.33325 23.335 1.77224 22.5536 2.55364C21.7722 3.33504 21.3333 4.39485 21.3333 5.49992C21.3333 6.84992 22.4999 8.49992 21.3333 9.66659L9.66659 21.3333C8.49992 22.4999 6.84992 21.3333 5.49992 21.3333C4.39485 21.3333 3.33504 21.7722 2.55364 22.5536C1.77224 23.335 1.33325 24.3948 1.33325 25.4999C1.33325 26.605 1.77224 27.6648 2.55364 28.4462C3.33504 29.2276 4.39485 29.6666 5.49992 29.6666C5.96659 29.6666 6.33325 30.0333 6.33325 30.4999C6.33325 31.605 6.77224 32.6648 7.55364 33.4462C8.33504 34.2276 9.39485 34.6666 10.4999 34.6666C11.605 34.6666 12.6648 34.2276 13.4462 33.4462C14.2276 32.6648 14.6666 31.605 14.6666 30.4999C14.6666 29.1499 13.4999 27.4999 14.6666 26.3333L26.3333 14.6666Z" stroke="white" stroke-width="2.5" stroke-linecap="round" stroke-linejoin="round"/>
</svg>
