<svg width="40" height="40" viewBox="0 0 40 40" fill="none" xmlns="http://www.w3.org/2000/svg">
<path d="M20 11.6667V18.3334" stroke="white" stroke-width="2.5" stroke-linecap="round" stroke-linejoin="round"/>
<path d="M13.33 15.0049C12.4023 16.2436 11.8377 17.7161 11.6997 19.2576C11.5617 20.799 11.8556 22.3484 12.5486 23.7322C13.2416 25.116 14.3062 26.2794 15.6232 27.0922C16.9402 27.905 18.4575 28.335 20.0051 28.3341C21.5526 28.3331 23.0694 27.9012 24.3854 27.0868C25.7013 26.2723 26.7645 25.1075 27.4557 23.7229C28.147 22.3382 28.439 20.7884 28.299 19.2472C28.1591 17.7059 27.5927 16.2341 26.6634 14.9966" stroke="white" stroke-width="2.5" stroke-linecap="round" stroke-linejoin="round"/>
<path d="M20 36.6666C29.2048 36.6666 36.6667 29.2047 36.6667 19.9999C36.6667 10.7952 29.2048 3.33325 20 3.33325C10.7953 3.33325 3.33337 10.7952 3.33337 19.9999C3.33337 29.2047 10.7953 36.6666 20 36.6666Z" stroke="white" stroke-width="2.5" stroke-linecap="round" stroke-linejoin="round"/>
</svg>
