<svg width="40" height="40" viewBox="0 0 40 40" fill="none" xmlns="http://www.w3.org/2000/svg">
<path d="M15.1066 32.4653C15.8267 30.6981 14.2467 26.0439 15.6752 24.6242C17.123 23.1857 28.4052 24.1409 28.5692 24.3035C28.8549 24.5874 28.6836 32.0114 28.259 32.8554C27.8344 33.6995 16.6544 33.2145 15.0547 33.082" stroke="white" stroke-width="1.7" stroke-linecap="round" stroke-linejoin="round"/>
<path d="M11.4394 31.6343C11.4394 29.0466 10.3322 23.8346 12.8803 21.9151C13.8045 21.2189 25.0851 21.1847 25.5426 21.6442C26.6154 22.7213 27.2229 23.3003 28.4723 24.179" stroke="white" stroke-width="1.7" stroke-linecap="round" stroke-linejoin="round"/>
<path d="M11.715 31.6343C12.7112 32.237 13.8277 32.6442 14.9138 33.0251" stroke="white" stroke-width="2.5" stroke-linecap="round" stroke-linejoin="round"/>
<path d="M13.3145 27.6797C12.9668 27.4836 12.7856 27.4642 12.5496 27.3286" stroke="white" stroke-width="2.5" stroke-linecap="round" stroke-linejoin="round"/>
<path d="M22.7473 18.1503C19.9309 17.5496 17.6666 18.6451 15.6722 18.1503C15.4504 18.0951 15.7689 13.4843 15.7907 13.0516C15.8683 11.5152 13.7398 9.73309 15.0792 8.03154C17.4065 5.07476 18.7063 8.03154 19.906 8.03154C20.4303 8.03154 23.1966 5.65962 24.6052 7.24711C26.6822 9.58774 23.478 10.5007 23.1966 11.338C22.8404 12.3988 23.0128 14.9411 23.1822 16.0324" stroke="white" stroke-width="2.5" stroke-linecap="round" stroke-linejoin="round"/>
<path d="M15.192 13.965C13.6747 14.0349 12.4961 13.5334 11.715 12.3025" stroke="white" stroke-width="2.5" stroke-linecap="round" stroke-linejoin="round"/>
<path d="M23.1193 14.2147C25.2976 13.916 26.2499 13.3977 26.8744 12.5806" stroke="white" stroke-width="2.5" stroke-linecap="round" stroke-linejoin="round"/>
</svg>
