<svg width="40" height="40" viewBox="0 0 40 40" fill="none" xmlns="http://www.w3.org/2000/svg">
<path d="M20 11.6667V18.3334" stroke="white" stroke-width="2.5" stroke-linecap="round" stroke-linejoin="round"/>
<path d="M13.33 15.0049C12.4023 16.2436 11.8377 17.7161 11.6997 19.2576C11.5617 20.799 11.8556 22.3484 12.5486 23.7322C13.2416 25.116 14.3062 26.2794 15.6232 27.0922C16.9402 27.905 18.4575 28.335 20.0051 28.3341C21.5526 28.3331 23.0694 27.9012 24.3854 27.0868C25.7013 26.2723 26.7645 25.1075 27.4557 23.7229C28.147 22.3382 28.439 20.7884 28.299 19.2472C28.1591 17.7059 27.5927 16.2341 26.6634 14.9966" stroke="white" stroke-width="2.5" stroke-linecap="round" stroke-linejoin="round"/>
<path d="M31.6667 5H8.33333C6.49238 5 5 6.49238 5 8.33333V31.6667C5 33.5076 6.49238 35 8.33333 35H31.6667C33.5076 35 35 33.5076 35 31.6667V8.33333C35 6.49238 33.5076 5 31.6667 5Z" stroke="white" stroke-width="2.5" stroke-linecap="round" stroke-linejoin="round"/>
</svg>
